# xmcd
# 
# Track frame offsets:
#     150
#     15587
#     33512
#     52152
#     77972
#     95697
#     114980
#     133397
#     155250
#     172372
#     192210
#     215047
#     231695
#     251195
#     277960
#     296362
#     318197
#     338505
# 
# Disc length: 4772
# 
# Revision: 7
# Processed by: cddbd v1.5.2PL0 Copyright (c) Steve Scherf et al.
# Submitted via: fre:ac v1.0.31
# 
DISCID=1312a212
DTITLE=Various Artist - Bild - Love Songs - CD2
DYEAR=1999
DGENRE=Pop
TTITLE0=Simply Red - If you don't know me by now (Album vers)
TTITLE1=Rod Stewart - Have I told you lately (Album vers)
TTITLE2=Loona - Hijo de la luna
TTITLE3=Dire Straits - Romeo and Juliet (Single vers)
TTITLE4=Art Garfunkel - Bright eyes (Album vers)
TTITLE5=Janet Jackson - Every time (Album vers)
TTITLE6=Sarah Brightman and Andrea Boccelli - Time to say goodbye (Con te Partirò) (Single vers)
TTITLE7=Gary Barlow - Forever love
TTITLE8=Shakespear's Sister - Stay (Album vers)
TTITLE9=East 17 - Someone to love (Single vers)
TTITLE10=Foreigner - I want to know what love is (Single vers)
TTITLE11=K-CI and Jojo - All my life (Single vers)
TTITLE12=Scorpions - You and I (Special single mix)
TTITLE13=Steve Winwood - Plenty lovin (Album vers)
TTITLE14=Natalie Imbruglia - Torn
TTITLE15=Shola Ama - You might need somebody (Album vers)
TTITLE16=R.E.M. - Drive (Album vers)
TTITLE17=Spice Girls - Goodbye (Radio edit)
EXTD=Bild Music YEAR: 1999
EXTT0=
EXTT1=
EXTT2=
EXTT3=
EXTT4=
EXTT5=
EXTT6=
EXTT7=
EXTT8=
EXTT9=
EXTT10=
EXTT11=
EXTT12=
EXTT13=
EXTT14=
EXTT15=
EXTT16=
EXTT17=
PLAYORDER=
